<svg width="16" height="13" viewBox="0 0 16 13" fill="none" xmlns="http://www.w3.org/2000/svg">
    <path d="M1.71535 3.642L7.48802 0.756002C7.5435 0.728302 7.60467 0.713882 7.66669 0.713882C7.7287 0.713882 7.78987 0.728302 7.84535 0.756002L13.618 3.64267C13.6844 3.67591 13.7402 3.72697 13.7792 3.79014C13.8183 3.85331 13.8389 3.92609 13.8389 4.00034C13.8389 4.07458 13.8183 4.14736 13.7792 4.21053C13.7402 4.2737 13.6844 4.32476 13.618 4.358L7.84535 7.244C7.78987 7.2717 7.7287 7.28612 7.66669 7.28612C7.60467 7.28612 7.5435 7.2717 7.48802 7.244L1.71535 4.35734C1.64896 4.32409 1.59314 4.27303 1.55412 4.20986C1.51511 4.14669 1.49445 4.07391 1.49445 3.99967C1.49445 3.92542 1.51511 3.85264 1.55412 3.78948C1.59314 3.72631 1.64896 3.67524 1.71535 3.642Z" stroke="#32235A" stroke-width="1.06667" stroke-linecap="round" stroke-linejoin="round"/>
    <path d="M15 6.66666V4.33333L13.6667 3.66666M3 5V8.608C2.99995 8.86025 3.07146 9.10734 3.20622 9.32058C3.34099 9.53381 3.53347 9.70445 3.76133 9.81266L7.09467 11.3953C7.2734 11.4802 7.4688 11.5243 7.66667 11.5243C7.86454 11.5243 8.05993 11.4802 8.23867 11.3953L11.572 9.81266C11.7999 9.70445 11.9923 9.53381 12.1271 9.32058C12.2619 9.10734 12.3334 8.86025 12.3333 8.608V5" stroke="#32235A" stroke-width="1.06667" stroke-linecap="round" stroke-linejoin="round"/>
</svg>
