<svg width="14" height="14" viewBox="0 0 14 14" fill="none" xmlns="http://www.w3.org/2000/svg">
    <path d="M1 9.66667V4.33333C1 3.44928 1.35119 2.60143 1.97631 1.97631C2.60143 1.35119 3.44928 1 4.33333 1H9.66667C10.5507 1 11.3986 1.35119 12.0237 1.97631C12.6488 2.60143 13 3.44928 13 4.33333V9.66667C13 10.5507 12.6488 11.3986 12.0237 12.0237C11.3986 12.6488 10.5507 13 9.66667 13H4.33333C3.44928 13 2.60143 12.6488 1.97631 12.0237C1.35119 11.3986 1 10.5507 1 9.66667Z" stroke="#32235A" stroke-width="1.06667"/>
    <path d="M10 8.66667C10 8.66667 9 10 7 10C5 10 4 8.66667 4 8.66667" stroke="#32235A" stroke-width="1.06667" stroke-linecap="round" stroke-linejoin="round"/>
    <path d="M4.66668 5.66667C4.57827 5.66667 4.49349 5.63155 4.43097 5.56904C4.36846 5.50652 4.33334 5.42174 4.33334 5.33333C4.33334 5.24493 4.36846 5.16014 4.43097 5.09763C4.49349 5.03512 4.57827 5 4.66668 5C4.75508 5 4.83987 5.03512 4.90238 5.09763C4.96489 5.16014 5.00001 5.24493 5.00001 5.33333C5.00001 5.42174 4.96489 5.50652 4.90238 5.56904C4.83987 5.63155 4.75508 5.66667 4.66668 5.66667ZM9.33334 5.66667C9.24494 5.66667 9.16015 5.63155 9.09764 5.56904C9.03513 5.50652 9.00001 5.42174 9.00001 5.33333C9.00001 5.24493 9.03513 5.16014 9.09764 5.09763C9.16015 5.03512 9.24494 5 9.33334 5C9.42175 5 9.50653 5.03512 9.56905 5.09763C9.63156 5.16014 9.66668 5.24493 9.66668 5.33333C9.66668 5.42174 9.63156 5.50652 9.56905 5.56904C9.50653 5.63155 9.42175 5.66667 9.33334 5.66667Z" fill="#32235A" stroke="#32235A" stroke-width="1.06667" stroke-linecap="round" stroke-linejoin="round"/>
</svg>
