<svg width="13" height="16" viewBox="0 0 13 16" fill="none" xmlns="http://www.w3.org/2000/svg">
    <path d="M11.3333 8V3.83267C11.3333 3.78004 11.323 3.72793 11.3029 3.67931C11.2827 3.63069 11.2532 3.58652 11.216 3.54933L9.11729 1.45067C9.04235 1.37563 8.94068 1.33343 8.83463 1.33333H1.06663C0.960539 1.33333 0.858798 1.37547 0.783783 1.45049C0.708769 1.5255 0.666626 1.62725 0.666626 1.73333V14.2667C0.666626 14.3728 0.708769 14.4745 0.783783 14.5495C0.858798 14.6245 0.960539 14.6667 1.06663 14.6667H5.33329M3.33329 6.66667H8.66663M3.33329 4H5.99996M3.33329 9.33333H5.33329M9.96929 11.2933L10.636 10.6267C10.7054 10.5572 10.7878 10.5021 10.8785 10.4645C10.9692 10.4269 11.0664 10.4076 11.1646 10.4076C11.2628 10.4076 11.3601 10.4269 11.4508 10.4645C11.5415 10.5021 11.6239 10.5572 11.6933 10.6267C11.8334 10.7668 11.9121 10.9568 11.9121 11.155C11.9121 11.3531 11.8334 11.5432 11.6933 11.6833L11.0266 12.35L9.96929 11.2927L7.97529 13.2867C7.87559 13.3867 7.81023 13.5158 7.78863 13.6553L7.62596 14.6933L8.66396 14.5313C8.80352 14.5097 8.93261 14.4444 9.03263 14.3447L11.026 12.35" stroke="#32235A" stroke-width="1.06667" stroke-linecap="round" stroke-linejoin="round"/>
</svg>
