<svg width="13" height="13" viewBox="0 0 13 13" fill="none" xmlns="http://www.w3.org/2000/svg">
    <path d="M12 3.06667V11.6C12 11.7061 11.9578 11.8078 11.8828 11.8828C11.8078 11.9579 11.7061 12 11.6 12H3.06666C2.96057 12 2.85883 11.9579 2.78381 11.8828C2.7088 11.8078 2.66666 11.7061 2.66666 11.6V3.06667C2.66666 2.96058 2.7088 2.85884 2.78381 2.78383C2.85883 2.70881 2.96057 2.66667 3.06666 2.66667H11.6C11.7061 2.66667 11.8078 2.70881 11.8828 2.78383C11.9578 2.85884 12 2.96058 12 3.06667Z" stroke="#32235A" stroke-width="1.06667" stroke-linecap="round" stroke-linejoin="round"/>
    <path d="M9.99999 0.666668H1.06666C0.96057 0.666668 0.858828 0.708811 0.783814 0.783825C0.708799 0.85884 0.666656 0.960581 0.666656 1.06667V10M6.60599 5.69667C6.54526 5.66018 6.47594 5.64048 6.4051 5.63958C6.33426 5.63867 6.26445 5.6566 6.20281 5.69152C6.14117 5.72644 6.08992 5.77711 6.05428 5.83833C6.01864 5.89956 5.99991 5.96916 5.99999 6.04V8.62667C5.99991 8.69751 6.01864 8.76711 6.05428 8.82833C6.08992 8.88956 6.14117 8.94023 6.20281 8.97515C6.26445 9.01007 6.33426 9.028 6.4051 9.02709C6.47594 9.02619 6.54526 9.00649 6.60599 8.97L8.76132 7.67667C8.82071 7.64117 8.86987 7.59088 8.904 7.5307C8.93814 7.47052 8.95609 7.40252 8.95609 7.33333C8.95609 7.26415 8.93814 7.19615 8.904 7.13597C8.86987 7.07579 8.82071 7.0255 8.76132 6.99L6.60599 5.69667Z" stroke="#32235A" stroke-width="1.06667" stroke-linecap="round" stroke-linejoin="round"/>
</svg>
